<?xml version="1.0" encoding="utf-8"?>
<!-- Generator: Adobe Illustrator 16.0.0, SVG Export Plug-In . SVG Version: 6.00 Build 0)  -->
<!DOCTYPE svg PUBLIC "-//W3C//DTD SVG 1.1//EN" "http://www.w3.org/Graphics/SVG/1.1/DTD/svg11.dtd">
<svg version="1.1" id="Layer_1" xmlns="http://www.w3.org/2000/svg" xmlns:xlink="http://www.w3.org/1999/xlink" x="0px" y="0px"
	 width="231.149px" height="255.545px" viewBox="295.293 0.228 231.149 255.545"
	 enable-background="new 295.293 0.228 231.149 255.545" xml:space="preserve">
<g>
	<g>
		<path fill="#231F1F" d="M295.293,12.16v169.817c0,0,65.286-7.598,65.286,56.173V77.439C360.579,16.71,295.293,12.16,295.293,12.16
			"/>
		<path fill="#AAAAAA" d="M325.871,0.228v149.422c0,0,36.041,6.954,36.041,70.72c0,63.771,0.182-118.634,0.182-152.797
			C362.1,6.849,325.871,0.228,325.871,0.228"/>
	</g>
	<path fill="#3978AD" d="M363.082,75.918v154.54c0,0,31.345-87.792,163.108,25.314c0-40.989,0.252-144.369,0.252-178.538
		C396.199-17.652,363.082,75.918,363.082,75.918"/>
	<polygon fill="#FFFFFF" points="375.5,191.592 404.697,191.592 414.132,126.605 414.43,126.605 440.341,191.592 452.026,191.592 
		479.131,126.605 479.429,126.605 487.664,191.592 517.037,191.592 499.946,78.714 470.749,78.714 446.482,139.04 423.566,78.714 
		394.666,78.714 	"/>
</g>
</svg>
